{
  "source": "C:\\Users\\Peter\\Desktop\\stuff\\MIUN\\quantitative_research\\video_compression\\videos\\HEVC_CLASS_B\\ParkScene_1920x1080_24.y4m",
  "output": "C:\\Users\\Peter\\Desktop\\stuff\\MIUN\\quantitative_research\\video_compression\\compressed_videos\\HEVC_CLASS_B\\hevc\\8\\ParkScene_1920x1080_24_hevc.mp4",
  "codec": "hevc",
  "ok": "Input #0, yuv4mpegpipe, from 'C:\\Users\\Peter\\Desktop\\stuff\\MIUN\\quantitative_research\\video_compression\\videos\\HEVC_CLASS_B\\ParkScene_1920x1080_24.y4m':\n  Duration: 00:00:10.00, start: 0.000000, bitrate: 597198 kb/s\n  Stream #0:0: Video: rawvideo (I420 / 0x30323449), yuv420p(progressive), 1920x1080, 24 fps, 24 tbr, 24 tbn\n[out#0/mp4 @ 000002587e35b680] Codec AVOption b:a (set bitrate (in bits/s)) has not been used for any stream. The most likely reason is either wrong type (e.g. a video option with no video streams) or that it is a private option of some decoder which was not actually used for any stream.\nStream mapping:\n  Stream #0:0 -> #0:0 (rawvideo (native) -> hevc (libx265))\nPress [q] to stop, [?] for help\n[libx265 @ 000002587e35cac0] Unknown option: \"aq-mode.\nx265 [info]: HEVC encoder version 4.1+190-8f11c33ac\nx265 [info]: build info [Windows][GCC 15.1.0][64 bit] 10bit\nx265 [info]: using cpu capabilities: MMX2 SSE2Fast LZCNT SSSE3 SSE4.2 AVX FMA3 BMI2 AVX2\nx265 [info]: Main 10 profile, Level-4 (Main tier)\nx265 [info]: Thread pool created using 12 threads\nx265 [info]: Slices                              : 1\nx265 [info]: frame threads / pool features       : 3 / wpp(17 rows)\nx265 [info]: Coding QT: max CU size, min CU size : 64 / 8\nx265 [info]: Residual QT: max TU size, max depth : 32 / 1 inter / 1 intra\nx265 [info]: ME / range / subpel / merge         : star / 57 / 3 / 3\nx265 [info]: Keyframe min / max / scenecut / bias  : 24 / 250 / 40 / 5.00 \nx265 [info]: Lookahead / bframes / badapt        : 25 / 4 / 2\nx265 [info]: b-pyramid / weightp / weightb       : 1 / 1 / 0\nx265 [info]: References / ref-limit  cu / depth  : 4 / on / on\nx265 [info]: AQ: mode / str / qg-size / cu-tree  : 2 / 1.0 / 32 / 1\nx265 [info]: Rate Control / qCompress            : ABR-8000 kbps / 0.60\nx265 [info]: VBV/HRD buffer / max-rate / init    : 8000 / 8000 / 0.750\nx265 [info]: tools: rect limit-modes rd=4 psy-rd=2.00 rdoq=2 psy-rdoq=1.00\nx265 [info]: tools: rskip mode=1 signhide tmvp strong-intra-smoothing lslices=4\nx265 [info]: tools: deblock sao dhdr10-info\nOutput #0, mp4, to 'C:\\Users\\Peter\\Desktop\\stuff\\MIUN\\quantitative_research\\video_compression\\compressed_videos\\HEVC_CLASS_B\\hevc\\8\\ParkScene_1920x1080_24_hevc.mp4':\n  Metadata:\n    encoder         : Lavf62.3.100\n  Stream #0:0: Video: hevc (hev1 / 0x31766568), yuv420p10le(tv, progressive), 1920x1080, q=2-31, 8000 kb/s, 24 fps, 12288 tbn\n    Metadata:\n      encoder         : Lavc62.11.100 libx265\n    Side data:\n      cpb: bitrate max/min/avg: 8000000/0/8000000 buffer size: 8000000 vbv_delay: N/A\nframe=    0 fps=0.0 q=0.0 size=       0KiB time=N/A bitrate=N/A speed=N/A elapsed=0:00:00.51    \nframe=    0 fps=0.0 q=0.0 size=       0KiB time=N/A bitrate=N/A speed=N/A elapsed=0:00:01.03    \nframe=    0 fps=0.0 q=0.0 size=       0KiB time=N/A bitrate=N/A speed=N/A elapsed=0:00:01.56    \nframe=    0 fps=0.0 q=0.0 size=       0KiB time=N/A bitrate=N/A speed=N/A elapsed=0:00:02.08    \nframe=    0 fps=0.0 q=0.0 size=       0KiB time=N/A bitrate=N/A speed=N/A elapsed=0:00:02.59    \nframe=    0 fps=0.0 q=0.0 size=       0KiB time=N/A bitrate=N/A speed=N/A elapsed=0:00:03.12    \nframe=    0 fps=0.0 q=0.0 size=       0KiB time=N/A bitrate=N/A speed=N/A elapsed=0:00:03.64    \nframe=    0 fps=0.0 q=0.0 size=       0KiB time=N/A bitrate=N/A speed=N/A elapsed=0:00:04.17    \nframe=    0 fps=0.0 q=0.0 size=       0KiB time=N/A bitrate=N/A speed=N/A elapsed=0:00:04.69    \nframe=    0 fps=0.0 q=0.0 size=       0KiB time=N/A bitrate=N/A speed=N/A elapsed=0:00:05.21    \nframe=    0 fps=0.0 q=0.0 size=       0KiB time=N/A bitrate=N/A speed=N/A elapsed=0:00:05.72    \nframe=    1 fps=0.2 q=20.8 size=       0KiB time=-00:00:00.04 bitrate=N/A speed=N/A elapsed=0:00:06.24    \nframe=    2 fps=0.3 q=26.6 size=     256KiB time=00:00:00.00 bitrate=N/A speed=   0x elapsed=0:00:06.74    \nframe=    3 fps=0.4 q=30.3 size=     256KiB time=00:00:00.04 bitrate=50339.7kbits/s speed=0.00573x elapsed=0:00:07.26    \nframe=    3 fps=0.4 q=30.3 size=     256KiB time=00:00:00.04 bitrate=50339.7kbits/s speed=0.00534x elapsed=0:00:07.80    \nframe=    3 fps=0.4 q=30.3 size=     256KiB time=00:00:00.04 bitrate=50339.7kbits/s speed=0.00499x elapsed=0:00:08.34    \nframe=    4 fps=0.5 q=33.2 size=     256KiB time=00:00:00.08 bitrate=25170.1kbits/s speed=0.0094x elapsed=0:00:08.86    \nframe=    4 fps=0.4 q=33.2 size=     256KiB time=00:00:00.08 bitrate=25170.1kbits/s speed=0.00888x elapsed=0:00:09.38    \nframe=    4 fps=0.4 q=33.2 size=     256KiB time=00:00:00.08 bitrate=25170.1kbits/s speed=0.00839x elapsed=0:00:09.92    \nframe=    5 fps=0.5 q=32.4 size=     256KiB time=00:00:00.12 bitrate=16780.0kbits/s speed=0.012x elapsed=0:00:10.43    \nframe=    6 fps=0.5 q=25.1 size=     256KiB time=00:00:00.16 bitrate=12585.0kbits/s speed=0.0152x elapsed=0:00:10.95    \nframe=    7 fps=0.6 q=28.6 size=     256KiB time=00:00:00.20 bitrate=10068.0kbits/s speed=0.0182x elapsed=0:00:11.47    \nframe=    7 fps=0.6 q=28.6 size=     256KiB time=00:00:00.20 bitrate=10068.0kbits/s speed=0.0174x elapsed=0:00:11.99    \nframe=    7 fps=0.6 q=28.6 size=     256KiB time=00:00:00.20 bitrate=10068.0kbits/s speed=0.0166x elapsed=0:00:12.51    \nframe=    8 fps=0.6 q=30.4 size=     256KiB time=00:00:00.25 bitrate=8390.0kbits/s speed=0.0192x elapsed=0:00:13.04    \nframe=    8 fps=0.6 q=30.4 size=     256KiB time=00:00:00.25 bitrate=8390.0kbits/s speed=0.0184x elapsed=0:00:13.56    \nframe=    8 fps=0.6 q=30.4 size=     256KiB time=00:00:00.25 bitrate=8390.0kbits/s speed=0.0178x elapsed=0:00:14.07    \nframe=    9 fps=0.6 q=30.4 size=     256KiB time=00:00:00.29 bitrate=7191.4kbits/s speed=0.02x elapsed=0:00:14.59    \nframe=    9 fps=0.6 q=30.4 size=     256KiB time=00:00:00.29 bitrate=7191.4kbits/s speed=0.0193x elapsed=0:00:15.12    \nframe=   10 fps=0.6 q=23.7 size=     256KiB time=00:00:00.33 bitrate=6292.5kbits/s speed=0.0213x elapsed=0:00:15.65    \nframe=   10 fps=0.6 q=23.7 size=     256KiB time=00:00:00.33 bitrate=6292.5kbits/s speed=0.0205x elapsed=0:00:16.22    \nframe=   11 fps=0.7 q=27.8 size=     512KiB time=00:00:00.37 bitrate=11185.7kbits/s speed=0.0224x elapsed=0:00:16.74    \nframe=   11 fps=0.6 q=27.8 size=     512KiB time=00:00:00.37 bitrate=11185.7kbits/s speed=0.0217x elapsed=0:00:17.28    \nframe=   11 fps=0.6 q=27.8 size=     512KiB time=00:00:00.37 bitrate=11185.7kbits/s speed=0.0211x elapsed=0:00:17.79    \nframe=   11 fps=0.6 q=27.8 size=     512KiB time=00:00:00.37 bitrate=11185.7kbits/s speed=0.0205x elapsed=0:00:18.33    \nframe=   13 fps=0.7 q=30.6 size=     512KiB time=00:00:00.41 bitrate=10067.2kbits/s speed=0.0221x elapsed=0:00:18.87    \nframe=   13 fps=0.7 q=30.6 size=     512KiB time=00:00:00.45 bitrate=9152.0kbits/s speed=0.0236x elapsed=0:00:19.41    \nframe=   14 fps=0.7 q=23.8 size=     512KiB time=00:00:00.50 bitrate=8389.3kbits/s speed=0.0251x elapsed=0:00:19.94    \nframe=   14 fps=0.7 q=23.8 size=     512KiB time=00:00:00.50 bitrate=8389.3kbits/s speed=0.0244x elapsed=0:00:20.45    \nframe=   15 fps=0.7 q=28.9 size=     512KiB time=00:00:00.54 bitrate=7744.0kbits/s speed=0.0258x elapsed=0:00:20.99    \nframe=   15 fps=0.7 q=28.9 size=     512KiB time=00:00:00.54 bitrate=7744.0kbits/s speed=0.0252x elapsed=0:00:21.52    \nframe=   15 fps=0.7 q=28.9 size=     512KiB time=00:00:00.54 bitrate=7744.0kbits/s speed=0.0246x elapsed=0:00:22.04    \nframe=   16 fps=0.7 q=30.3 size=     768KiB time=00:00:00.58 bitrate=10786.0kbits/s speed=0.0258x elapsed=0:00:22.56    \nframe=   16 fps=0.7 q=30.3 size=     768KiB time=00:00:00.58 bitrate=10786.0kbits/s speed=0.0253x elapsed=0:00:23.08    \nframe=   16 fps=0.7 q=30.3 size=     768KiB time=00:00:00.58 bitrate=10786.0kbits/s speed=0.0247x elapsed=0:00:23.60    \nframe=   17 fps=0.7 q=30.6 size=     768KiB time=00:00:00.62 bitrate=10066.9kbits/s speed=0.0259x elapsed=0:00:24.12    \nframe=   17 fps=0.7 q=30.6 size=     768KiB time=00:00:00.62 bitrate=10066.9kbits/s speed=0.0253x elapsed=0:00:24.67    \nframe=   18 fps=0.7 q=30.4 size=     768KiB time=00:00:00.66 bitrate=9437.7kbits/s speed=0.0265x elapsed=0:00:25.19    \nframe=   18 fps=0.7 q=30.4 size=     768KiB time=00:00:00.66 bitrate=9437.7kbits/s speed=0.0259x elapsed=0:00:25.70    \nframe=   19 fps=0.7 q=23.4 size=     768KiB time=00:00:00.70 bitrate=8882.6kbits/s speed=0.027x elapsed=0:00:26.22    \nframe=   19 fps=0.7 q=23.4 size=     768KiB time=00:00:00.70 bitrate=8882.6kbits/s speed=0.0265x elapsed=0:00:26.75    \nframe=   20 fps=0.7 q=27.5 size=     768KiB time=00:00:00.75 bitrate=8389.1kbits/s speed=0.0275x elapsed=0:00:27.26    \nframe=   20 fps=0.7 q=27.5 size=     768KiB time=00:00:00.75 bitrate=8389.1kbits/s speed=0.027x elapsed=0:00:27.79    \nframe=   20 fps=0.7 q=27.5 size=     768KiB time=00:00:00.75 bitrate=8389.1kbits/s speed=0.0265x elapsed=0:00:28.33    \nframe=   20 fps=0.7 q=27.5 size=     768KiB time=00:00:00.75 bitrate=8389.1kbits/s speed=0.026x elapsed=0:00:28.86    \nframe=   20 fps=0.7 q=27.5 size=     768KiB time=00:00:00.75 bitrate=8389.1kbits/s speed=0.0255x elapsed=0:00:29.39    \nframe=   20 fps=0.7 q=27.5 size=     768KiB time=00:00:00.75 bitrate=8389.1kbits/s speed=0.0251x elapsed=0:00:29.93    \nframe=   21 fps=0.7 q=30.4 size=     768KiB time=00:00:00.79 bitrate=7947.5kbits/s speed=0.026x elapsed=0:00:30.46    \nframe=   21 fps=0.7 q=30.4 size=     768KiB time=00:00:00.79 bitrate=7947.5kbits/s speed=0.0256x elapsed=0:00:30.98    \nframe=   22 fps=0.7 q=30.2 size=     768KiB time=00:00:00.83 bitrate=7550.2kbits/s speed=0.0264x elapsed=0:00:31.50    \nframe=   22 fps=0.7 q=30.2 size=     768KiB time=00:00:00.83 bitrate=7550.2kbits/s speed=0.026x elapsed=0:00:32.02    \nframe=   22 fps=0.7 q=30.2 size=     768KiB time=00:00:00.83 bitrate=7550.2kbits/s speed=0.0256x elapsed=0:00:32.54    \nframe=   23 fps=0.7 q=23.3 size=     768KiB time=00:00:00.87 bitrate=7190.6kbits/s speed=0.0265x elapsed=0:00:33.07    \nframe=   24 fps=0.7 q=26.7 size=    1024KiB time=00:00:00.91 bitrate=9151.6kbits/s speed=0.0273x elapsed=0:00:33.59    \nframe=   25 fps=0.7 q=30.0 size=    1024KiB time=00:00:00.95 bitrate=8753.7kbits/s speed=0.0281x elapsed=0:00:34.11    \nframe=   25 fps=0.7 q=30.0 size=    1024KiB time=00:00:00.95 bitrate=8753.7kbits/s speed=0.0277x elapsed=0:00:34.65    \nframe=   25 fps=0.7 q=30.0 size=    1024KiB time=00:00:00.95 bitrate=8753.7kbits/s speed=0.0272x elapsed=0:00:35.17    \nframe=   26 fps=0.7 q=30.3 size=    1024KiB time=00:00:01.00 bitrate=8389.0kbits/s speed=0.028x elapsed=0:00:35.68    \nframe=   27 fps=0.7 q=30.2 size=    1024KiB time=00:00:01.04 bitrate=8053.4kbits/s speed=0.0288x elapsed=0:00:36.20    \nframe=   27 fps=0.7 q=30.2 size=    1024KiB time=00:00:01.04 bitrate=8053.4kbits/s speed=0.0284x elapsed=0:00:36.73    \nframe=   27 fps=0.7 q=30.2 size=    1024KiB time=00:00:01.04 bitrate=8053.4kbits/s speed=0.028x elapsed=0:00:37.25    \nframe=   28 fps=0.7 q=23.2 size=    1024KiB time=00:00:01.08 bitrate=7743.7kbits/s speed=0.0287x elapsed=0:00:37.78    \nframe=   28 fps=0.7 q=23.2 size=    1024KiB time=00:00:01.08 bitrate=7743.7kbits/s speed=0.0283x elapsed=0:00:38.30    \nframe=   28 fps=0.7 q=23.2 size=    1024KiB time=00:00:01.08 bitrate=7743.7kbits/s speed=0.0279x elapsed=0:00:38.82    \nframe=   29 fps=0.7 q=27.2 size=    1024KiB time=00:00:01.12 bitrate=7456.9kbits/s speed=0.0286x elapsed=0:00:39.37    \nframe=   29 fps=0.7 q=27.2 size=    1024KiB time=00:00:01.12 bitrate=7456.9kbits/s speed=0.0282x elapsed=0:00:39.89    \nframe=   29 fps=0.7 q=27.2 size=    1024KiB time=00:00:01.12 bitrate=7456.9kbits/s speed=0.0278x elapsed=0:00:40.42    \nframe=   30 fps=0.7 q=30.0 size=    1024KiB time=00:00:01.16 bitrate=7190.5kbits/s speed=0.0285x elapsed=0:00:40.95    \nframe=   30 fps=0.7 q=30.0 size=    1024KiB time=00:00:01.16 bitrate=7190.5kbits/s speed=0.0281x elapsed=0:00:41.47    \nframe=   30 fps=0.7 q=30.0 size=    1024KiB time=00:00:01.16 bitrate=7190.5kbits/s speed=0.0278x elapsed=0:00:42.00    \nframe=   31 fps=0.7 q=30.2 size=    1024KiB time=00:00:01.20 bitrate=6942.6kbits/s speed=0.0284x elapsed=0:00:42.51    \nframe=   32 fps=0.7 q=23.2 size=    1280KiB time=00:00:01.25 bitrate=8388.9kbits/s speed=0.029x elapsed=0:00:43.06    \nframe=   33 fps=0.8 q=27.3 size=    1280KiB time=00:00:01.29 bitrate=8118.3kbits/s speed=0.0296x elapsed=0:00:43.58    \nframe=   33 fps=0.7 q=27.3 size=    1280KiB time=00:00:01.29 bitrate=8118.3kbits/s speed=0.0293x elapsed=0:00:44.10    \nframe=   33 fps=0.7 q=27.3 size=    1280KiB time=00:00:01.29 bitrate=8118.3kbits/s speed=0.0289x elapsed=0:00:44.62    \nframe=   34 fps=0.8 q=30.0 size=    1280KiB time=00:00:01.33 bitrate=7864.6kbits/s speed=0.0295x elapsed=0:00:45.16    \nframe=   34 fps=0.7 q=30.0 size=    1280KiB time=00:00:01.33 bitrate=7864.6kbits/s speed=0.0292x elapsed=0:00:45.68    \nframe=   35 fps=0.8 q=29.9 size=    1280KiB time=00:00:01.37 bitrate=7626.3kbits/s speed=0.0298x elapsed=0:00:46.20    \nframe=   36 fps=0.8 q=23.2 size=    1280KiB time=00:00:01.41 bitrate=7402.0kbits/s speed=0.0303x elapsed=0:00:46.72    \nframe=   36 fps=0.8 q=23.2 size=    1280KiB time=00:00:01.41 bitrate=7402.0kbits/s speed=0.03x elapsed=0:00:47.23    \nframe=   37 fps=0.8 q=27.3 size=    1536KiB time=00:00:01.45 bitrate=8628.5kbits/s speed=0.0305x elapsed=0:00:47.79    \nframe=   37 fps=0.8 q=27.3 size=    1536KiB time=00:00:01.45 bitrate=8628.5kbits/s speed=0.0302x elapsed=0:00:48.34    \nframe=   37 fps=0.8 q=27.3 size=    1536KiB time=00:00:01.45 bitrate=8628.5kbits/s speed=0.0298x elapsed=0:00:48.88    \nframe=   38 fps=0.8 q=30.1 size=    1536KiB time=00:00:01.50 bitrate=8388.8kbits/s speed=0.0304x elapsed=0:00:49.41    \nframe=   39 fps=0.8 q=30.2 size=    1536KiB time=00:00:01.54 bitrate=8162.1kbits/s speed=0.0309x elapsed=0:00:49.93    \nframe=   40 fps=0.8 q=23.3 size=    1536KiB time=00:00:01.58 bitrate=7947.3kbits/s speed=0.0314x elapsed=0:00:50.45    \nframe=   41 fps=0.8 q=27.4 size=    1536KiB time=00:00:01.62 bitrate=7743.5kbits/s speed=0.0319x elapsed=0:00:50.97    \nframe=   42 fps=0.8 q=30.1 size=    1536KiB time=00:00:01.66 bitrate=7550.0kbits/s speed=0.0324x elapsed=0:00:51.48    \nframe=   43 fps=0.8 q=30.7 size=    1536KiB time=00:00:01.70 bitrate=7365.8kbits/s speed=0.0328x elapsed=0:00:52.01    \nframe=   45 fps=0.9 q=27.5 size=    1792KiB time=00:00:01.79 bitrate=8193.7kbits/s speed=0.0341x elapsed=0:00:52.53    \nframe=   45 fps=0.8 q=27.5 size=    1792KiB time=00:00:01.79 bitrate=8193.7kbits/s speed=0.0338x elapsed=0:00:53.05    \nframe=   46 fps=0.9 q=30.2 size=    1792KiB time=00:00:01.83 bitrate=8007.5kbits/s speed=0.0342x elapsed=0:00:53.56    \nframe=   48 fps=0.9 q=23.7 size=    1792KiB time=00:00:01.91 bitrate=7659.3kbits/s speed=0.0354x elapsed=0:00:54.08    \nframe=   50 fps=0.9 q=30.2 size=    2048KiB time=00:00:02.00 bitrate=8388.8kbits/s speed=0.0366x elapsed=0:00:54.59    \nframe=   51 fps=0.9 q=30.2 size=    2048KiB time=00:00:02.04 bitrate=8217.6kbits/s speed=0.037x elapsed=0:00:55.10    \nframe=   53 fps=1.0 q=23.7 size=    2048KiB time=00:00:02.12 bitrate=7895.3kbits/s speed=0.0382x elapsed=0:00:55.62    \nframe=   54 fps=1.0 q=27.5 size=    2048KiB time=00:00:02.16 bitrate=7743.5kbits/s speed=0.0386x elapsed=0:00:56.15    \nframe=   55 fps=1.0 q=30.4 size=    2048KiB time=00:00:02.20 bitrate=7597.4kbits/s speed=0.039x elapsed=0:00:56.66    \nframe=   56 fps=1.0 q=30.4 size=    2048KiB time=00:00:02.25 bitrate=7456.7kbits/s speed=0.0393x elapsed=0:00:57.19    \nframe=   58 fps=1.0 q=27.7 size=    2304KiB time=00:00:02.33 bitrate=8089.2kbits/s speed=0.0404x elapsed=0:00:57.71    \nframe=   59 fps=1.0 q=30.4 size=    2304KiB time=00:00:02.37 bitrate=7947.3kbits/s speed=0.0408x elapsed=0:00:58.22    \nframe=   61 fps=1.0 q=23.6 size=    2304KiB time=00:00:02.45 bitrate=7677.9kbits/s speed=0.0419x elapsed=0:00:58.73    \nframe=   62 fps=1.0 q=27.8 size=    2560KiB time=00:00:02.50 bitrate=8388.7kbits/s speed=0.0422x elapsed=0:00:59.25    \nframe=   64 fps=1.1 q=30.5 size=    2560KiB time=00:00:02.58 bitrate=8118.1kbits/s speed=0.0432x elapsed=0:00:59.76    \nframe=   66 fps=1.1 q=27.8 size=    2560KiB time=00:00:02.66 bitrate=7864.5kbits/s speed=0.0442x elapsed=0:01:00.28    \nframe=   68 fps=1.1 q=30.6 size=    2560KiB time=00:00:02.75 bitrate=7626.1kbits/s speed=0.0452x elapsed=0:01:00.80    \nframe=   69 fps=1.1 q=23.4 size=    2560KiB time=00:00:02.79 bitrate=7512.3kbits/s speed=0.0455x elapsed=0:01:01.32    \nframe=   71 fps=1.1 q=30.2 size=    2816KiB time=00:00:02.87 bitrate=8024.0kbits/s speed=0.0465x elapsed=0:01:01.83    \nframe=   73 fps=1.2 q=29.9 size=    2816KiB time=00:00:02.95 bitrate=7798.0kbits/s speed=0.0475x elapsed=0:01:02.34    \nframe=   74 fps=1.2 q=23.7 size=    2816KiB time=00:00:03.00 bitrate=7689.7kbits/s speed=0.0477x elapsed=0:01:02.85    \nframe=   77 fps=1.2 q=30.8 size=    3072KiB time=00:00:03.12 bitrate=8053.2kbits/s speed=0.0493x elapsed=0:01:03.38    \nframe=   78 fps=1.2 q=30.8 size=    3072KiB time=00:00:03.16 bitrate=7947.2kbits/s speed=0.0496x elapsed=0:01:03.88    \nframe=   80 fps=1.2 q=28.2 size=    3072KiB time=00:00:03.25 bitrate=7743.4kbits/s speed=0.0505x elapsed=0:01:04.41    \nframe=   82 fps=1.3 q=30.4 size=    3328KiB time=00:00:03.33 bitrate=8179.0kbits/s speed=0.0513x elapsed=0:01:04.92    \nframe=   84 fps=1.3 q=28.0 size=    3328KiB time=00:00:03.41 bitrate=7979.5kbits/s speed=0.0522x elapsed=0:01:05.44    \nframe=   85 fps=1.3 q=30.6 size=    3328KiB time=00:00:03.45 bitrate=7883.4kbits/s speed=0.0524x elapsed=0:01:05.95    \nframe=   87 fps=1.3 q=23.1 size=    3328KiB time=00:00:03.54 bitrate=7697.9kbits/s speed=0.0533x elapsed=0:01:06.47    \nframe=   89 fps=1.3 q=30.0 size=    3584KiB time=00:00:03.62 bitrate=8099.4kbits/s speed=0.0541x elapsed=0:01:06.99    \nframe=   92 fps=1.4 q=23.6 size=    3584KiB time=00:00:03.75 bitrate=7829.5kbits/s speed=0.0555x elapsed=0:01:07.50    \nframe=   95 fps=1.4 q=30.2 size=    3840KiB time=00:00:03.87 bitrate=8118.1kbits/s speed=0.057x elapsed=0:01:08.02    \nframe=   97 fps=1.4 q=27.7 size=    3840KiB time=00:00:03.95 bitrate=7947.2kbits/s speed=0.0578x elapsed=0:01:08.53    \nframe=  101 fps=1.5 q=29.0 size=    4096KiB time=00:00:04.12 bitrate=8134.5kbits/s speed=0.0597x elapsed=0:01:09.05    \nframe=  103 fps=1.5 q=30.4 size=    4096KiB time=00:00:04.20 bitrate=7973.4kbits/s speed=0.0605x elapsed=0:01:09.56    \nframe=  107 fps=1.5 q=29.7 size=    4096KiB time=00:00:04.37 bitrate=7669.7kbits/s speed=0.0624x elapsed=0:01:10.08    \nframe=  110 fps=1.6 q=27.1 size=    4352KiB time=00:00:04.50 bitrate=7922.7kbits/s speed=0.0637x elapsed=0:01:10.59    \nframe=  113 fps=1.6 q=22.7 size=    4352KiB time=00:00:04.62 bitrate=7708.5kbits/s speed=0.065x elapsed=0:01:11.11    \nframe=  115 fps=1.6 q=29.3 size=    4608KiB time=00:00:04.70 bitrate=8017.5kbits/s speed=0.0657x elapsed=0:01:11.63    \nframe=  118 fps=1.6 q=22.4 size=    4608KiB time=00:00:04.83 bitrate=7810.2kbits/s speed=0.067x elapsed=0:01:12.14    \nframe=  121 fps=1.7 q=29.5 size=    4864KiB time=00:00:04.95 bitrate=8036.2kbits/s speed=0.0682x elapsed=0:01:12.66    \nframe=  124 fps=1.7 q=27.1 size=    4864KiB time=00:00:05.08 bitrate=7838.6kbits/s speed=0.0695x elapsed=0:01:13.18    \nframe=  127 fps=1.7 q=22.7 size=    4864KiB time=00:00:05.20 bitrate=7650.5kbits/s speed=0.0707x elapsed=0:01:13.69    \nframe=  130 fps=1.8 q=29.8 size=    5120KiB time=00:00:05.33 bitrate=7864.4kbits/s speed=0.0719x elapsed=0:01:14.20    \nframe=  133 fps=1.8 q=25.7 size=    5376KiB time=00:00:05.45 bitrate=8068.5kbits/s speed=0.073x elapsed=0:01:14.72    \nframe=  135 fps=1.8 q=29.0 size=    5376KiB time=00:00:05.54 bitrate=7947.2kbits/s speed=0.0736x elapsed=0:01:15.24    \nframe=  139 fps=1.8 q=29.1 size=    5632KiB time=00:00:05.70 bitrate=8082.5kbits/s speed=0.0753x elapsed=0:01:15.76    \nframe=  142 fps=1.9 q=22.6 size=    5632KiB time=00:00:05.83 bitrate=7909.3kbits/s speed=0.0765x elapsed=0:01:16.28    \nframe=  145 fps=1.9 q=29.3 size=    5632KiB time=00:00:05.95 bitrate=7743.4kbits/s speed=0.0776x elapsed=0:01:16.80    \nframe=  148 fps=1.9 q=26.1 size=    5888KiB time=00:00:06.08 bitrate=7929.0kbits/s speed=0.0787x elapsed=0:01:17.32    \nframe=  151 fps=1.9 q=22.8 size=    5888KiB time=00:00:06.20 bitrate=7769.4kbits/s speed=0.0798x elapsed=0:01:17.84    \nframe=  154 fps=2.0 q=29.4 size=    6144KiB time=00:00:06.33 bitrate=7947.2kbits/s speed=0.0808x elapsed=0:01:18.34    \nframe=  159 fps=2.0 q=28.9 size=    6144KiB time=00:00:06.54 bitrate=7694.1kbits/s speed=0.083x elapsed=0:01:18.86    \nframe=  164 fps=2.1 q=22.6 size=    6400KiB time=00:00:06.75 bitrate=7767.3kbits/s speed=0.085x elapsed=0:01:19.37    \nframe=  168 fps=2.1 q=22.1 size=    6656KiB time=00:00:06.91 bitrate=7883.3kbits/s speed=0.0866x elapsed=0:01:19.90    \nframe=  172 fps=2.1 q=28.6 size=    6656KiB time=00:00:07.08 bitrate=7697.8kbits/s speed=0.0881x elapsed=0:01:20.41    \nframe=  177 fps=2.2 q=28.4 size=    6912KiB time=00:00:07.29 bitrate=7765.5kbits/s speed=0.0901x elapsed=0:01:20.92    \nframe=  181 fps=2.2 q=29.0 size=    7168KiB time=00:00:07.45 bitrate=7873.2kbits/s speed=0.0916x elapsed=0:01:21.45    \nframe=  186 fps=2.3 q=28.5 size=    7424KiB time=00:00:07.66 bitrate=7932.8kbits/s speed=0.0935x elapsed=0:01:21.96    \nframe=  191 fps=2.3 q=26.9 size=    7680KiB time=00:00:07.87 bitrate=7989.2kbits/s speed=0.0955x elapsed=0:01:22.47    \nframe=  195 fps=2.3 q=23.0 size=    7680KiB time=00:00:08.04 bitrate=7823.6kbits/s speed=0.0969x elapsed=0:01:22.99    \nframe=  200 fps=2.4 q=24.2 size=    7936KiB time=00:00:08.25 bitrate=7880.3kbits/s speed=0.0988x elapsed=0:01:23.50    \nframe=  205 fps=2.4 q=27.3 size=    8192KiB time=00:00:08.45 bitrate=7934.1kbits/s speed=0.101x elapsed=0:01:24.02    \nframe=  209 fps=2.5 q=26.9 size=    8448KiB time=00:00:08.62 bitrate=8023.9kbits/s speed=0.102x elapsed=0:01:24.53    \nframe=  214 fps=2.5 q=29.5 size=    8448KiB time=00:00:08.83 bitrate=7834.7kbits/s speed=0.104x elapsed=0:01:25.05    \nframe=  218 fps=2.5 q=28.2 size=    8704KiB time=00:00:09.00 bitrate=7922.6kbits/s speed=0.105x elapsed=0:01:25.56    \nframe=  224 fps=2.6 q=28.7 size=    8960KiB time=00:00:09.25 bitrate=7935.2kbits/s speed=0.107x elapsed=0:01:26.08    \nframe=  229 fps=2.6 q=28.5 size=    9216KiB time=00:00:09.45 bitrate=7982.1kbits/s speed=0.109x elapsed=0:01:26.59    \nframe=  235 fps=2.7 q=26.4 size=    9472KiB time=00:00:09.70 bitrate=7992.6kbits/s speed=0.111x elapsed=0:01:27.11    \n[mp4 @ 000002587e35b780] Starting second pass: moving the moov atom to the beginning of the file\n[out#0/mp4 @ 000002587e35b680] video:9659KiB audio:0KiB subtitle:0KiB other streams:0KiB global headers:2KiB muxing overhead: 0.065130%\nframe=  240 fps=2.7 q=25.2 Lsize=    9665KiB time=00:00:09.91 bitrate=7984.4kbits/s speed=0.113x elapsed=0:01:27.38    \nx265 [info]: frame I:      1, Avg QP:20.79  kb/s: 62051.52\nx265 [info]: frame P:     54, Avg QP:23.08  kb/s: 24270.87\nx265 [info]: frame B:    185, Avg QP:28.70  kb/s: 2844.29 \nx265 [info]: Weighted P-Frames: Y:0.0% UV:0.0%\n\nencoded 240 frames in 87.29s (2.75 fps), 7911.97 kb/s, Avg QP:27.40\n",
  "seconds": 87.48010516166687,
  "probe_out": {}
}